
#
# '/mnt/sdcard/Download/cds-data/video/video_11_mov (1min).mov'
#
General
Count                                    : 284
Count of stream of this kind             : 1
Kind of stream                           : General
Kind of stream                           : General
Stream identifier                        : 0
Count of video streams                   : 1
Count of audio streams                   : 1
Video_Format_List                        : MPEG-4 Visual
Video_Format_WithHint_List               : MPEG-4 Visual
Codecs Video                             : MPEG-4 Visual
Video_Language_List                      : English
Audio_Format_List                        : AAC
Audio_Format_WithHint_List               : AAC
Audio codecs                             : AAC LC
Audio_Language_List                      : English
Complete name                            : /mnt/sdcard/Download/cds-data/video/video_11_mov (1min).mov
Folder name                              : /mnt/sdcard/Download/cds-data/video
File name                                : video_11_mov (1min)
File extension                           : mov
Format                                   : MPEG-4
Format                                   : MPEG-4
Format/Extensions usually used           : mp4 m4v m4a m4b m4p 3gpp 3gp 3gpp2 3g2 k3g jpm jpx mqv ismv isma f4v
Commercial name                          : MPEG-4
Format profile                           : QuickTime
Internet media type                      : video/mp4
Codec ID                                 : qt  
Codec ID/Url                             : http://www.apple.com/quicktime/download/standalone.html
Codec                                    : MPEG-4
Codec                                    : MPEG-4
Codec/Extensions usually used            : mp4 m4v m4a m4b m4p 3gpp 3gp 3gpp2 3g2 k3g jpm jpx mqv ismv isma f4v
File size                                : 13664945
File size                                : 13.0 MiB
File size                                : 13 MiB
File size                                : 13 MiB
File size                                : 13.0 MiB
File size                                : 13.03 MiB
Duration                                 : 59900
Duration                                 : 59s 900ms
Duration                                 : 59s 900ms
Duration                                 : 59s 900ms
Duration                                 : 00:00:59.900
Overall bit rate mode                    : VBR
Overall bit rate mode                    : Variable
Overall bit rate                         : 1825034
Overall bit rate                         : 1 825 Kbps
Stream size                              : 36877
Stream size                              : 36.0 KiB (0%)
Stream size                              : 36 KiB
Stream size                              : 36 KiB
Stream size                              : 36.0 KiB
Stream size                              : 36.01 KiB
Stream size                              : 36.0 KiB (0%)
Proportion of this stream                : 0.00270
HeaderSize                               : 28
DataSize                                 : 13628076
FooterSize                               : 36841
IsStreamable                             : No
Encoded date                             : UTC 1970-01-01 00:00:00
Tagged date                              : UTC 1970-01-01 00:00:00
File last modification date              : UTC 2014-11-26 06:30:41
File last modification date (local)      : 2014-11-26 15:30:41

Video
Count                                    : 274
Count of stream of this kind             : 1
Kind of stream                           : Video
Kind of stream                           : Video
Stream identifier                        : 0
StreamOrder                              : 0
ID                                       : 1
ID                                       : 1
Format                                   : MPEG-4 Visual
Commercial name                          : MPEG-4 Visual
Format profile                           : Simple@L1
Format settings, BVOP                    : No
Format settings, BVOP                    : No
Format settings, QPel                    : No
Format settings, QPel                    : No
Format settings, GMC                     : 0
Format settings, GMC                     : No warppoints
Format settings, Matrix                  : Default (H.263)
Format settings, Matrix                  : Default (H.263)
Internet media type                      : video/MP4V-ES
Codec ID                                 : 20
Codec                                    : MPEG-4V
Codec                                    : MPEG-4 Visual
Codec/Family                             : MPEG-4V
Codec/CC                                 : 20
Codec profile                            : Simple@L1
Codec settings, Packet bitstream         : No
Codec settings, BVOP                     : No
Codec settings, QPel                     : No
Codec settings, GMC                      : 0
Codec settings, GMC                      : No warppoints
Codec settings, Matrix                   : Default (H.263)
Duration                                 : 59900
Duration                                 : 59s 900ms
Duration                                 : 59s 900ms
Duration                                 : 59s 900ms
Duration                                 : 00:00:59.900
Bit rate                                 : 1724686
Bit rate                                 : 1 725 Kbps
Width                                    : 1920
Width                                    : 1 920 pixels
Height                                   : 1080
Height                                   : 1 080 pixels
Pixel aspect ratio                       : 1.000
Display aspect ratio                     : 1.778
Display aspect ratio                     : 16:9
Rotation                                 : 0.000
Frame rate mode                          : CFR
Frame rate mode                          : Constant
Frame rate                               : 30.000
Frame rate                               : 30.000 fps
Frame count                              : 1797
Resolution                               : 8
Resolution                               : 8 bits
Colorimetry                              : 4:2:0
Color space                              : YUV
Chroma subsampling                       : 4:2:0
Bit depth                                : 8
Bit depth                                : 8 bits
Scan type                                : Progressive
Scan type                                : Progressive
Interlacement                            : PPF
Interlacement                            : Progressive
Compression mode                         : Lossy
Compression mode                         : Lossy
Bits/(Pixel*Frame)                       : 0.028
Stream size                              : 12913590
Stream size                              : 12.3 MiB (95%)
Stream size                              : 12 MiB
Stream size                              : 12 MiB
Stream size                              : 12.3 MiB
Stream size                              : 12.32 MiB
Stream size                              : 12.3 MiB (95%)
Proportion of this stream                : 0.94502
Writing library                          : Lavc51.64.0
Writing library                          : Lavc51.64.0
Language                                 : en
Language                                 : English
Language                                 : English
Language                                 : en
Language                                 : eng
Language                                 : en
Encoded date                             : UTC 1970-01-01 00:00:00
Tagged date                              : UTC 1970-01-01 00:00:00

Audio
Count                                    : 222
Count of stream of this kind             : 1
Kind of stream                           : Audio
Kind of stream                           : Audio
Stream identifier                        : 0
StreamOrder                              : 1
ID                                       : 2
ID                                       : 2
Format                                   : AAC
Format/Info                              : Advanced Audio Codec
Commercial name                          : AAC
Format profile                           : LC
Codec ID                                 : 40
Codec                                    : AAC LC
Codec                                    : AAC LC
Codec/Family                             : AAC
Codec/CC                                 : 40
Duration                                 : 59862
Duration                                 : 59s 862ms
Duration                                 : 59s 862ms
Duration                                 : 59s 862ms
Duration                                 : 00:00:59.862
Bit rate mode                            : VBR
Bit rate mode                            : Variable
Bit rate                                 : 96000
Bit rate                                 : 96.0 Kbps
Channel(s)                               : 2
Channel(s)                               : 2 channels
Channel positions                        : Front: L R
Channel positions                        : 2/0/0
ChannelLayout                            : L R
Sampling rate                            : 44100
Sampling rate                            : 44.1 KHz
Samples count                            : 2639914
Frame count                              : 2578
Compression mode                         : Lossy
Compression mode                         : Lossy
Stream size                              : 714478
Stream size                              : 698 KiB (5%)
Stream size                              : 698 KiB
Stream size                              : 698 KiB
Stream size                              : 698 KiB
Stream size                              : 697.7 KiB
Stream size                              : 698 KiB (5%)
Proportion of this stream                : 0.05229
Language                                 : en
Language                                 : English
Language                                 : English
Language                                 : en
Language                                 : eng
Language                                 : en
Encoded date                             : UTC 1970-01-01 00:00:00
Tagged date                              : UTC 1970-01-01 00:00:00

